<?xml version="1.0" encoding="utf-8"?>
<!-- Generator: Adobe Illustrator 21.0.0, SVG Export Plug-In . SVG Version: 6.00 Build 0)  -->
<svg version="1.1" id="Layer_1" xmlns="http://www.w3.org/2000/svg" xmlns:xlink="http://www.w3.org/1999/xlink" x="0px" y="0px"
	 viewBox="0 0 1686.4 617" style="enable-background:new 0 0 1686.4 617;" xml:space="preserve">
<style type="text/css">
	.st0{fill:#9D9FA2;}
	.st1{clip-path:url(#SVGID_2_);fill:#B2232B;}
	.st2{fill:#B2232B;}
	.st3{clip-path:url(#SVGID_4_);fill:#9D9FA2;}
	.st4{clip-path:url(#SVGID_6_);}
</style>
<g>
	<path class="st0" d="M711.9,545.7c-3.1,3.1-7.9,3.1-11-0.1c-3.1-3.1-3.2-8-0.1-11c3-3,7.9-2.9,11,0.2
		C714.9,537.9,714.9,542.7,711.9,545.7z M702.2,536c-2.4,2.4-2.5,6.1-0.1,8.5c2.4,2.4,6,2.2,8.4-0.2c2.4-2.4,2.6-6.1,0.2-8.5
		C708.3,533.5,704.6,533.6,702.2,536z M702.7,542.2l-1.3-1.3l5.4-5.4c0.6,0.4,1.3,1,2.2,1.9c1,1,1.3,1.6,1.5,2.3
		c0.1,0.5-0.1,1.2-0.7,1.7c-0.6,0.6-1.5,0.6-2.4,0.1l-0.1,0.1c0.3,0.7,0.2,1.4-0.3,2.3c-0.7,1-0.9,1.4-1,1.7l-1.3-1.3
		c0-0.4,0.4-1,0.9-1.7c0.5-0.7,0.4-1.3-0.3-2l-0.6-0.6L702.7,542.2z M705.8,539.1l0.6,0.6c0.7,0.7,1.5,1,2,0.5
		c0.5-0.5,0.5-1.2-0.3-2c-0.3-0.3-0.6-0.5-0.8-0.6L705.8,539.1z"/>
</g>
<g>
	<defs>
		<rect id="SVGID_1_" width="1686.4" height="617"/>
	</defs>
	<clipPath id="SVGID_2_">
		<use xlink:href="#SVGID_1_"  style="overflow:visible;"/>
	</clipPath>
	<path class="st1" d="M109.8,415.8L78,447.6l25.2,25.2L135,441L109.8,415.8z M69.3,375.3l-21.9,21.9c-22.9,22.9-31.2,39.7-30.9,63
		c0.3,19.5,8.2,38.1,22.2,52.2c30.7,30.7,77.5,30.3,108.8-0.9c10.9-10.9,17.5-21.6,21.9-36.1l-32.2-32.1c3.2,18.9,0.5,29.8-9.8,40
		c-16.5,16.5-41.6,16.4-58.5-0.5c-17.8-17.8-17-39.7,2-58.8l23.5-23.5L69.3,375.3z"/>
	<path class="st1" d="M81.1,363.4l25.2,25.2l35.1-35.1c6.9-6.9,12.5-7.7,17.7-2.5c5.5,5.5,4.4,11-3.5,18.9l-34,34l25.2,25.2
		l24.4-24.4c13.1-13.1,20.8-13.6,31.8-2.5l24.7,24.7l28.8-28.8L229,370.4c-13.7-13.7-25.4-15.3-40.3-5.7
		c11.7-18.3,10.2-33.9-4.1-48.2c-7.9-7.9-18.3-12.3-28.1-12c-12.8,0.5-22.5,6.1-39.2,22.9L81.1,363.4z"/>
	<path class="st1" d="M238.4,250.3c15-15,36.1-12.5,54.7,6.1c19.2,19.2,21.6,39.6,6.6,54.5c-15.1,15.1-35.9,12.6-55-6.5
		C225.8,285.7,223.4,265.3,238.4,250.3 M214.3,226.2c-31,31.1-30.6,77.2,1.1,108.9c31.7,31.7,77.1,31.4,109.1-0.6
		c31.5-31.5,30.7-75.8-1.9-108.4C291,194.6,245.9,194.6,214.3,226.2"/>
	<path class="st1" d="M363.7,80.9l-28.8,28.8l79.9,79.9l-13.1,13.1c-9.9,9.9-14.3,9.6-25.2-1.3l-66.7-66.7L281,163.6l70,70
		c24.7,24.7,45.2,25.1,68.9,1.4l49-49L363.7,80.9z"/>
	<path class="st1" d="M376.3,68.3l25.2,25.2l32.9-32.9c8.8-8.8,14.5-10.1,19.9-4.7c5.7,5.7,4.3,11.2-4.9,20.3l-32.6,32.6l64.6,64.6
		l28.8-28.8l-39.4-39.4l9.3-9.3c12.5-12.5,17.2-21.3,18-33.7c0.9-13.2-4.1-26.5-13.6-35.9c-9.6-9.6-23.3-14.8-36.4-14
		c-12.3,0.9-22.2,6.5-36.1,20.3L376.3,68.3z"/>
</g>
<rect x="177" y="480" transform="matrix(0.7071 -0.7071 0.7071 0.7071 -308.7072 316.8363)" class="st0" width="102.2" height="102.2"/>
<rect x="265.7" y="391.3" transform="matrix(0.7071 -0.7071 0.7071 0.7071 -220.0328 353.5761)" class="st0" width="102.2" height="102.2"/>
<polygon class="st0" points="333.2,353.7 405.5,281.5 405.5,426 "/>
<polygon class="st0" points="333.2,531.1 405.5,458.8 405.5,603.3 "/>
<rect x="443" y="391.3" transform="matrix(0.7071 -0.7071 0.7071 0.7071 -168.0856 478.9904)" class="st2" width="102.2" height="102.2"/>
<rect x="531.7" y="480" transform="matrix(0.7071 -0.7071 0.7071 0.7071 -204.8181 567.6547)" class="st2" width="102.2" height="102.2"/>
<polygon class="st2" points="405.5,458.8 477.7,531.1 405.5,603.3 "/>
<polygon class="st2" points="405.5,281.5 477.7,353.7 405.5,426 "/>
<polygon class="st0" points="555.3,188.8 526.4,160 421.3,265.1 485.9,329.7 511.1,304.5 475.4,268.7 "/>
<path class="st0" d="M627.5,261l-28.8-28.8l-25.2,25.2l28.8,28.8L627.5,261z M586.9,301.5l-28.8-28.8l-64.6,64.6l28.8,28.8
	L586.9,301.5z"/>
<g>
	<defs>
		<rect id="SVGID_3_" width="1686.4" height="617"/>
	</defs>
	<clipPath id="SVGID_4_">
		<use xlink:href="#SVGID_3_"  style="overflow:visible;"/>
	</clipPath>
	<path class="st3" d="M637.7,271.3L532.6,376.4l28.8,28.8l79.9-79.9l13.7,13.7c8.5,8.5,8.7,14,0.6,22.1l-69.2,69.2l28.8,28.8
		l70.6-70.6c24.3-24.3,23.5-45.5-2.7-71.7L637.7,271.3z"/>
</g>
<polygon class="st0" points="796.8,430.3 762.4,396 688.4,402.9 666,425.3 657.3,501.1 694.5,538.3 704.9,438.7 "/>
<g>
	<defs>
		<rect id="SVGID_5_" width="1686.4" height="617"/>
	</defs>
	<clipPath id="SVGID_6_">
		<use xlink:href="#SVGID_5_"  style="overflow:visible;"/>
	</clipPath>
	<g class="st4">
		<path class="st0" d="M961.5,399.6c-5.4-3-11.9-5.5-19.4-7.3c-7.5-1.8-15.1-2.7-22.6-2.7c-10.6,0-19.5,1.8-26.9,5.4
			c-7.4,3.6-11.1,9.6-11.1,18.1c0,4.8,2,9.7,5.9,14.7c3.9,5,8.7,10.2,14.5,15.6c6.9,6.9,14.3,13.8,22.1,20.5
			c7.8,6.8,14.3,12.7,19.4,17.8c6.3,6,11.7,11.6,16,16.7c4.4,5.1,7.9,10.1,10.6,14.9c2.7,4.8,4.7,9.8,5.9,14.9s1.8,10.8,1.8,17.2
			c0,11.7-2.9,21.4-8.6,29.1c-5.7,7.7-12.9,13.8-21.5,18.3c-8.6,4.5-17.9,7.7-28,9.5c-10.1,1.8-19.4,2.7-27.8,2.7
			c-10.3,0-20.7-0.7-31.4-2c-10.7-1.4-18.9-3.7-24.6-7l0.2-43.3c6.6,2.7,14.9,5,24.9,6.9c10,1.9,19.8,2.9,29.4,2.9
			c11.5,0,20.7-1.6,27.8-4.7c7.1-3.2,10.6-8.8,10.6-16.9c0-5.1-1.5-9.9-4.5-14.4c-3-4.5-6.6-8.9-10.9-13.1c-6-6-12.5-11.8-19.5-17.4
			c-6.9-5.6-13.4-11.2-19.5-16.9c-5.4-5.1-10.6-9.8-15.4-14.2c-4.8-4.4-9.2-9-13.1-14c-3.9-5-7-10.5-9.3-16.7
			c-2.3-6.2-3.4-13.6-3.4-22.3c0-9.3,2-17.9,6.1-25.7c4.1-7.8,9.8-14.6,17.2-20.3c7.4-5.7,16.1-10.1,26.2-13.1
			c10.1-3,21.3-4.5,33.7-4.5c14.2,0,29.2,2.3,45.2,6.8V399.6z"/>
		<path class="st0" d="M1047.4,417.3c11.1-10,24.9-15,41.1-15c7.5,0,14.9,0.6,22.1,1.8s13.7,4,19.4,8.4c5.7,4.4,10.3,10.8,13.8,19.4
			c3.5,8.6,5.2,20.2,5.2,35v136.3h-46.8V475.6c0-12.6-2.3-20.5-6.9-23.6c-4.6-3.1-11.6-4.7-20.8-4.7c-9,0-15.8,1.5-20.6,4.5
			c-4.8,3-7.2,10.8-7.2,23.4v127.9h-46.1V349l46.8-11.7V417.3z"/>
		<path class="st0" d="M1324,603.1h-31.6l-10.8-13.5c-10.2,10.2-24.8,15.3-43.7,15.3c-9,0-17.4-0.7-25-2c-7.7-1.4-14.3-4.3-19.8-8.8
			s-10-11.1-13.3-19.8c-3.3-8.7-5-20.4-5-35.1c0-14.4,1.8-26.1,5.4-34.9c3.6-8.9,8.3-15.8,14-21c5.7-5.1,12.1-8.6,19.2-10.4
			c7.1-1.8,14-2.7,21-2.7c9.3,0,17.3,0.7,24.1,2c6.8,1.4,13.1,3.2,19.2,5.6v-6.3c0-8.1-3.2-14.1-9.5-18.2c-6.3-4-16.7-6.1-31.1-6.1
			c-7.8,0-14.6,0.5-20.3,1.5s-10.7,2.2-14.9,3.6v-44.7c4.5-1.5,11.1-2.8,19.8-3.8c8.7-1.1,19.4-1.6,32-1.6c9.6,0,18.7,1.1,27.3,3.4
			c8.6,2.3,16,6.1,22.3,11.5c6.3,5.4,11.3,12.6,15.1,21.7c3.8,9,5.6,20.3,5.6,33.8V603.1z M1277.1,508.8c-3-1.2-6.5-2.3-10.4-3.2
			c-3.9-0.9-8-1.4-12.2-1.4c-4.2,0-8.3,0.5-12.2,1.6c-3.9,1.1-7.4,2.8-10.6,5.2c-3.2,2.4-5.7,5.7-7.7,9.7s-2.9,9.1-2.9,15.2
			c0,16.9,9.8,25.3,29.3,25.3c7.8,0,13.9-1.8,18.3-5.4c4.4-3.6,7.1-6.8,8.3-9.5V508.8z"/>
		<path class="st0" d="M1402.3,418.9c10.3-11.1,23.7-16.7,40.3-16.7v46.5c-2.1-1.2-6.2-1.8-12.2-1.8c-5.7,0-11.3,2-16.7,5.9
			c-5.4,3.9-8.1,11.3-8.1,22.1v128.2h-45.4V405.5h42.1V418.9z"/>
		<path class="st0" d="M1513.3,526.8c0.3,7,1.1,12.6,2.3,17c1.2,4.4,3.2,7.7,6.1,10c2.9,2.3,6.7,3.8,11.5,4.5
			c4.8,0.8,11.1,1.1,19,1.1c7.2,0,14.6-0.5,22.1-1.4s15-2.6,22.6-5.1v46c-8.4,1.5-17.6,2.9-27.5,4.1c-9.9,1.2-20.8,1.8-32.5,1.8
			c-10.8,0-20.6-1.1-29.3-3.2c-8.7-2.1-16.2-6.7-22.3-13.8c-6.2-7.1-10.8-17.4-14-30.9s-4.7-31.6-4.7-54.2c0-19.6,1.7-35.8,5-48.7
			s8.2-23.2,14.7-30.9c6.5-7.7,14.5-13.1,24.1-16.3c9.6-3.2,20.8-4.7,33.4-4.7c17.1,0,30.5,2.9,40.1,8.8
			c9.6,5.9,16.8,13.2,21.4,21.9s7.5,18.2,8.6,28.4c1.1,10.2,1.6,19.7,1.6,28.4v9.9c0,5.1-0.1,10.3-0.2,15.6
			c-0.2,5.3-0.6,9.1-1.2,11.5H1513.3z M1569.3,489c-0.6-9-1.4-16.2-2.5-21.8s-2.6-9.8-4.7-12.8c-2.1-3-4.8-4.9-8.1-5.8
			c-3.3-0.9-7.4-1.4-12.2-1.4c-4.2,0-8,0.3-11.3,0.9c-3.3,0.6-6.2,2.2-8.8,4.9c-2.6,2.7-4.6,6.9-6.1,12.6
			c-1.5,5.7-2.4,13.5-2.7,23.3H1569.3z"/>
	</g>
	<g class="st4">
		<path class="st2" d="M777.7,177.2v100.6h-49v-264h84.6c25.7,0,45.4,6.5,59.2,19.5s20.7,34.1,20.7,63.3c0,28.6-7.3,49.1-21.8,61.7
			c-14.6,12.6-35.1,18.8-61.7,18.8H777.7z M777.7,61v69.7h37c10.3,0,18.3-2.9,24.1-8.7s8.7-14.5,8.7-26.1s-2.9-20.3-8.7-26.1
			S824.9,61,814.6,61H777.7z"/>
		<path class="st2" d="M992.3,68.3c14.4,0,26.7,0.9,36.7,2.8c10,1.9,18.1,6.4,24.2,13.7s10.5,17.8,13.2,31.8c2.7,14,4,33.2,4,57.7
			c0,22.6-1.2,40.8-3.5,54.6c-2.4,13.8-6.5,24.5-12.5,32c-6,7.5-14,12.6-24,15.1c-10,2.5-22.7,3.8-38.1,3.8
			c-13.5,0-25.1-1.1-34.8-3.3c-9.7-2.2-17.8-7-24.2-14.4c-6.4-7.4-11.1-18-14.1-32c-3-14-4.5-32.6-4.5-55.8
			c0-23.8,1.6-42.7,4.9-56.7c3.3-14,8.2-24.6,14.6-31.8s14.5-11.9,24.2-14.1C968.1,69.4,979.4,68.3,992.3,68.3z M992.5,114.8
			c-5.3,0-9.9,0.5-13.7,1.4c-3.8,0.9-6.8,3.3-9.2,7.1c-2.4,3.8-4,9.7-4.9,17.7s-1.4,19.1-1.4,33.3c0,13.9,0.5,24.7,1.4,32.6
			s2.6,13.7,4.9,17.5c2.3,3.8,5.3,6.1,8.9,6.8c3.6,0.8,8.2,1.2,13.9,1.2c6,0,10.9-0.5,14.8-1.4c3.9-0.9,7-3.3,9.2-7.1
			c2.2-3.8,3.7-9.5,4.5-17.2s1.2-18.5,1.2-32.4c0-14.2-0.4-25.3-1.2-33.3s-2.2-13.9-4.2-17.7c-2-3.8-5-6.1-8.9-7.1
			C1003.8,115.2,998.7,114.8,992.5,114.8z"/>
		<path class="st2" d="M1219.9,215.6l-15.1-77.2l-14.1,76.8l-13.2,62.6h-41.4l-52.2-206.3h48.5l26.8,134.2l28.2-134.2h40.5
			l26.8,134.2L1283,71.5h43.3l-50.8,206.3h-41.9L1219.9,215.6z"/>
		<path class="st2" d="M1392.4,198.3c0.3,7.3,1.1,13.2,2.3,17.8c1.2,4.6,3.4,8.1,6.3,10.4c3,2.4,7,3.9,12,4.7
			c5,0.8,11.6,1.2,19.7,1.2c7.5,0,15.2-0.5,23-1.5s15.6-2.8,23.5-5.4v48c-8.8,1.6-18.3,3-28.7,4.2s-21.6,1.9-33.8,1.9
			c-11.3,0-21.5-1.1-30.5-3.3c-9.1-2.2-16.8-7-23.3-14.4c-6.4-7.4-11.3-18.1-14.6-32.2c-3.3-14.1-4.9-32.9-4.9-56.5
			c0-20.4,1.7-37.3,5.2-50.8c3.4-13.5,8.5-24.2,15.3-32.2s15.1-13.7,25.1-16.9c10-3.3,21.6-4.9,34.8-4.9c17.9,0,31.8,3.1,41.8,9.2
			c10,6.1,17.5,13.7,22.3,22.8c4.9,9.1,7.8,19,8.9,29.7c1.1,10.7,1.6,20.6,1.6,29.7V170c0,5.3-0.1,10.8-0.2,16.3
			c-0.2,5.5-0.6,9.5-1.2,12H1392.4z M1450.5,158.7c-0.6-9.4-1.5-17.1-2.6-22.9c-1.1-5.8-2.7-10.3-4.9-13.5c-2.2-3.1-5-5.2-8.4-6.1
			c-3.4-0.9-7.6-1.4-12.6-1.4c-4.4,0-8.3,0.3-11.7,0.9c-3.4,0.6-6.5,2.4-9.1,5.2c-2.6,2.8-4.8,7.2-6.3,13.2
			c-1.6,6-2.5,14.2-2.8,24.6H1450.5z"/>
		<path class="st2" d="M1575.3,85.7c10.6-11.6,24.6-17.4,41.8-17.4v48.5c-2.2-1.3-6.4-1.9-12.7-1.9c-5.9,0-11.7,2-17.4,6.1
			c-5.6,4.1-8.4,11.8-8.4,23.1v133.7H1531V71.5h44.3V85.7z"/>
	</g>
</g>
<g>
	<path class="st0" d="M1633,567.4V594h-6.5v-26.6h-7.1v-5.8h20.5v5.8H1633z"/>
	<path class="st0" d="M1662.3,579.6l0.2-5.9h-0.1l-1.3,5.6l-3.9,14.7h-2.6l-4.2-15.1l-1.5-5.6h-0.1l0.3,6V594h-5.8v-32.3h7.1
		l4.5,16.4l1,4.8l1-4.9l4.3-16.4h6.7V594h-5.8V579.6z"/>
</g>
</svg>
